<?xml version="1.0" encoding="UTF-8"?>
<svg id="Capa_2" data-name="Capa 2" xmlns="http://www.w3.org/2000/svg" viewBox="0 0 264.56 306.62">
  <defs>
    <style>
      .cls-1 {
        fill: #efefef;
        stroke-width: 0px;
      }
    </style>
  </defs>
  <g id="Capa_4" data-name="Capa 4">
    <path class="cls-1" d="m264.56,162.97v22.02c0,16.83-12.32,24.46-27.39,16.95l-96.44-48.09c-4.65-2.32-12.25-2.32-16.9,0l-66.43,33.13c-5.77,2.88-10.49,10.5-10.49,16.95v78.43c0,6.48-4.75,14.12-10.56,16.98l-9.04,4.46c-15.02,7.41-27.31-.24-27.31-16.98v-112.11c0-6.44,4.72-14.07,10.49-16.95l113.34-56.52c4.65-2.32,12.25-2.32,16.9,0l76.83,38.31v-46.83s-76.83-38.34-76.83-38.34c-4.65-2.32-12.26-2.32-16.91,0L27.39,102.45c-15.06,7.51-27.39-.12-27.39-16.95v-10.3c0-6.44,4.72-14.07,10.49-16.95L123.83,1.74c4.65-2.32,12.26-2.32,16.91,0l123.72,61.74v.61s.06,98.86.06,98.86l.05.02Z"/>
  </g>
</svg>